<svg width="39" height="19" viewBox="0 0 39 19" fill="none" xmlns="http://www.w3.org/2000/svg">
<path d="M0.713406 18V1.2H10.9134V3.408H3.23341V8.472H10.6734V10.656H3.23341V15.792H10.9134V18H0.713406ZM12.3986 12.864H14.8466C15.1586 14.904 16.5986 16.104 18.8306 16.104C20.8946 16.104 22.0706 15.096 22.0706 13.608C22.0706 12.36 21.2066 11.544 19.5506 11.088L16.7666 10.32C13.9586 9.552 12.5426 8.064 12.5426 5.76C12.5426 2.856 14.8946 0.935999 18.0386 0.935999C21.3746 0.935999 23.7506 3.072 24.1586 6.24H21.7106C21.3506 4.248 20.0786 3.072 18.0146 3.072C16.3106 3.072 15.0386 4.032 15.0386 5.568C15.0386 6.792 15.9026 7.584 17.4626 8.016L20.2946 8.784C23.2466 9.6 24.5666 11.016 24.5666 13.368C24.5666 16.176 22.3106 18.24 18.8306 18.24C15.2786 18.24 12.6866 16.08 12.3986 12.864ZM25.0698 3.408V1.2H38.0778V3.408H32.8218V18H30.3018V3.408H25.0698Z" fill="#DADADA"/>
</svg>
