<svg width="131" height="48" viewBox="0 0 131 48" fill="none" xmlns="http://www.w3.org/2000/svg">
<path d="M28.7161 9.6C28.7161 4.776 32.6041 0.912 37.5721 0.912C42.5161 0.912 46.4041 4.776 46.4041 9.6C46.4041 14.448 42.5161 18.288 37.5721 18.288C32.6041 18.288 28.7161 14.448 28.7161 9.6ZM31.2601 9.6C31.2601 13.2 34.0681 15.984 37.5721 15.984C41.0761 15.984 43.8601 13.2 43.8601 9.6C43.8601 6.024 41.0761 3.216 37.5721 3.216C34.0681 3.216 31.2601 6.024 31.2601 9.6ZM50.9773 11.568C50.9773 14.28 52.7533 16.032 55.1053 16.032C57.4333 16.032 59.2333 14.232 59.2333 11.568V1.2H61.7533V18H59.2573V16.44C58.1293 17.616 56.5693 18.288 54.8173 18.288C51.2173 18.288 48.4573 15.672 48.4573 11.712V1.2H50.9773V11.568ZM64.3267 18V1.2H74.5267V3.408H66.8467V8.472H74.2867V10.656H66.8467V15.792H74.5267V18H64.3267ZM76.0119 12.864H78.4599C78.7719 14.904 80.2119 16.104 82.4439 16.104C84.5079 16.104 85.6839 15.096 85.6839 13.608C85.6839 12.36 84.8199 11.544 83.1639 11.088L80.3799 10.32C77.5719 9.552 76.1559 8.064 76.1559 5.76C76.1559 2.856 78.5079 0.935999 81.6519 0.935999C84.9879 0.935999 87.3639 3.072 87.7719 6.24H85.3239C84.9639 4.248 83.6919 3.072 81.6279 3.072C79.9239 3.072 78.6519 4.032 78.6519 5.568C78.6519 6.792 79.5159 7.584 81.0759 8.016L83.9079 8.784C86.8599 9.6 88.1799 11.016 88.1799 13.368C88.1799 16.176 85.9239 18.24 82.4439 18.24C78.8919 18.24 76.2999 16.08 76.0119 12.864ZM88.6831 3.408V1.2H101.691V3.408H96.4351V18H93.9151V3.408H88.6831ZM0.0509375 41.864H2.49894C2.81094 43.904 4.25094 45.104 6.48294 45.104C8.54694 45.104 9.72294 44.096 9.72294 42.608C9.72294 41.36 8.85894 40.544 7.20294 40.088L4.41894 39.32C1.61094 38.552 0.194938 37.064 0.194938 34.76C0.194938 31.856 2.54694 29.936 5.69094 29.936C9.02694 29.936 11.4029 32.072 11.8109 35.24H9.36294C9.00294 33.248 7.73094 32.072 5.66694 32.072C3.96294 32.072 2.69094 33.032 2.69094 34.568C2.69094 35.792 3.55494 36.584 5.11494 37.016L7.94694 37.784C10.8989 38.6 12.2189 40.016 12.2189 42.368C12.2189 45.176 9.96294 47.24 6.48294 47.24C2.93094 47.24 0.338938 45.08 0.0509375 41.864ZM16.8054 40.568C16.8054 43.28 18.5814 45.032 20.9334 45.032C23.2614 45.032 25.0614 43.232 25.0614 40.568V30.2H27.5814V47H25.0854V45.44C23.9574 46.616 22.3974 47.288 20.6454 47.288C17.0454 47.288 14.2854 44.672 14.2854 40.712V30.2H16.8054V40.568ZM45.2028 38.6C45.2028 43.304 41.3628 47 36.5868 47H30.1548V30.2H36.5868C41.3628 30.2 45.2028 33.92 45.2028 38.6ZM36.3708 32.408H32.6748V44.792H36.3708C39.8748 44.792 42.6588 42.056 42.6588 38.6C42.6588 35.144 39.8748 32.408 36.3708 32.408ZM47.1363 40.88V38.792H55.3923V40.88H47.1363ZM57.3333 38.6C57.3333 33.776 61.2213 29.912 66.1893 29.912C71.1333 29.912 75.0213 33.776 75.0213 38.6C75.0213 43.448 71.1333 47.288 66.1893 47.288C61.2213 47.288 57.3333 43.448 57.3333 38.6ZM59.8773 38.6C59.8773 42.2 62.6853 44.984 66.1893 44.984C69.6933 44.984 72.4773 42.2 72.4773 38.6C72.4773 35.024 69.6933 32.216 66.1893 32.216C62.6853 32.216 59.8773 35.024 59.8773 38.6ZM79.5944 40.568C79.5944 43.28 81.3704 45.032 83.7224 45.032C86.0504 45.032 87.8504 43.232 87.8504 40.568V30.2H90.3704V47H87.8744V45.44C86.7464 46.616 85.1864 47.288 83.4344 47.288C79.8344 47.288 77.0744 44.672 77.0744 40.712V30.2H79.5944V40.568ZM92.9439 47V30.2H103.144V32.408H95.4639V37.472H102.904V39.656H95.4639V44.792H103.144V47H92.9439ZM104.629 41.864H107.077C107.389 43.904 108.829 45.104 111.061 45.104C113.125 45.104 114.301 44.096 114.301 42.608C114.301 41.36 113.437 40.544 111.781 40.088L108.997 39.32C106.189 38.552 104.773 37.064 104.773 34.76C104.773 31.856 107.125 29.936 110.269 29.936C113.605 29.936 115.981 32.072 116.389 35.24H113.941C113.581 33.248 112.309 32.072 110.245 32.072C108.541 32.072 107.269 33.032 107.269 34.568C107.269 35.792 108.133 36.584 109.693 37.016L112.525 37.784C115.477 38.6 116.797 40.016 116.797 42.368C116.797 45.176 114.541 47.24 111.061 47.24C107.509 47.24 104.917 45.08 104.629 41.864ZM117.3 32.408V30.2H130.308V32.408H125.052V47H122.532V32.408H117.3Z" fill="#DADADA"/>
</svg>
