<svg width="96" height="19" viewBox="0 0 96 19" fill="none" xmlns="http://www.w3.org/2000/svg">
<path d="M0.281406 12.864H2.72941C3.04141 14.904 4.48141 16.104 6.71341 16.104C8.77741 16.104 9.95341 15.096 9.95341 13.608C9.95341 12.36 9.08941 11.544 7.43341 11.088L4.64941 10.32C1.84141 9.552 0.425406 8.064 0.425406 5.76C0.425406 2.856 2.77741 0.935999 5.92141 0.935999C9.25741 0.935999 11.6334 3.072 12.0414 6.24H9.59341C9.23341 4.248 7.96141 3.072 5.89741 3.072C4.19341 3.072 2.92141 4.032 2.92141 5.568C2.92141 6.792 3.78541 7.584 5.34541 8.016L8.17741 8.784C11.1294 9.6 12.4494 11.016 12.4494 13.368C12.4494 16.176 10.1934 18.24 6.71341 18.24C3.16141 18.24 0.569406 16.08 0.281406 12.864ZM17.0358 11.568C17.0358 14.28 18.8118 16.032 21.1638 16.032C23.4918 16.032 25.2918 14.232 25.2918 11.568V1.2H27.8118V18H25.3158V16.44C24.1878 17.616 22.6278 18.288 20.8758 18.288C17.2758 18.288 14.5158 15.672 14.5158 11.712V1.2H17.0358V11.568ZM45.4333 9.6C45.4333 14.304 41.5933 18 36.8173 18H30.3853V1.2H36.8173C41.5933 1.2 45.4333 4.92 45.4333 9.6ZM36.6013 3.408H32.9053V15.792H36.6013C40.1053 15.792 42.8893 13.056 42.8893 9.6C42.8893 6.144 40.1053 3.408 36.6013 3.408ZM47.3668 11.88V9.792H55.6228V11.88H47.3668ZM57.7134 18V1.2H67.9134V3.408H60.2334V8.472H67.6734V10.656H60.2334V15.792H67.9134V18H57.7134ZM69.3986 12.864H71.8466C72.1586 14.904 73.5986 16.104 75.8306 16.104C77.8946 16.104 79.0706 15.096 79.0706 13.608C79.0706 12.36 78.2066 11.544 76.5506 11.088L73.7666 10.32C70.9586 9.552 69.5426 8.064 69.5426 5.76C69.5426 2.856 71.8946 0.935999 75.0386 0.935999C78.3746 0.935999 80.7506 3.072 81.1586 6.24H78.7106C78.3506 4.248 77.0786 3.072 75.0146 3.072C73.3106 3.072 72.0386 4.032 72.0386 5.568C72.0386 6.792 72.9026 7.584 74.4626 8.016L77.2946 8.784C80.2466 9.6 81.5666 11.016 81.5666 13.368C81.5666 16.176 79.3106 18.24 75.8306 18.24C72.2786 18.24 69.6866 16.08 69.3986 12.864ZM82.0698 3.408V1.2H95.0778V3.408H89.8218V18H87.3018V3.408H82.0698Z" fill="#DADADA"/>
</svg>
